<svg width="47" height="28" viewBox="0 0 47 28" fill="none" xmlns="http://www.w3.org/2000/svg">
<path d="M19.9386 17.3717C23.2878 18.8355 26.4956 20.1108 29.3734 21.1399C29.6274 21.2316 29.8762 21.318 30.125 21.407C30.8608 20.6319 31.4788 19.718 31.9318 18.681C34.0215 13.8995 31.8402 8.3297 27.056 6.24006C22.2744 4.15042 16.7046 6.33171 14.615 11.1159C14.1253 12.2367 13.8739 13.4019 13.832 14.5541C15.741 15.4863 17.7914 16.4343 19.9386 17.3717Z" fill="url(#paint0_linear_169_3909)"/>
<path d="M35.5256 11.3411C35.2297 11.2128 35.0935 10.8671 35.2219 10.5686C35.303 10.3853 35.4654 10.2622 35.6487 10.2282C35.6146 10.2072 35.5806 10.1863 35.5439 10.168C35.1302 9.98727 34.6458 10.1758 34.4651 10.5896C34.2844 11.0033 34.4729 11.4877 34.8867 11.6684C35.2585 11.8308 35.6801 11.6946 35.8975 11.3673C35.7796 11.4013 35.6487 11.3961 35.5256 11.3411Z" fill="url(#paint1_linear_169_3909)"/>
<path d="M8.92535 10.8461C8.30474 12.268 6.64717 12.9174 5.22789 12.2942C3.80599 11.6735 3.15657 10.016 3.7798 8.59669C4.40041 7.17479 6.05798 6.52538 7.47727 7.1486C8.89655 7.77183 9.54596 9.42417 8.92535 10.8461Z" fill="url(#paint2_linear_169_3909)"/>
<path d="M4.35069 7.6908C4.12026 7.51273 3.90291 7.34514 3.84007 7.29539C2.65646 6.3396 1.94158 5.5095 2.13012 5.08005C2.32913 4.62441 3.35301 4.55895 4.98701 4.82081C2.1694 4.24733 0.362562 4.26043 0.0457116 4.98578C-0.234479 5.62472 0.784157 6.82404 2.80572 8.36378C2.88166 8.42139 3.11995 8.60207 3.36872 8.79323C3.59915 8.32712 3.94219 7.95266 4.35069 7.6908Z" fill="white"/>
<path d="M17.6295 2.97205L18.3915 2.7259L17.6295 2.47714L18.2109 1.70203L17.5064 2.22837L17.1896 -6.10352e-05L16.8675 2.22837L16.1631 1.69941L16.7444 2.47714L15.9824 2.72328L16.7444 2.97205L16.1631 3.74716L16.8649 3.22082L17.1844 5.44663L17.5064 3.22082L18.2082 3.74716L17.6295 2.97205Z" fill="url(#paint3_linear_169_3909)"/>
<path d="M31.7073 26.1649L32.3907 26.034L31.7099 25.8978L32.2415 25.2799L31.5318 25.7407L31.3826 24.8085L31.2255 25.7407L30.5184 25.2746L31.0474 25.8952L30.3613 26.0262L31.0448 26.1623L30.5132 26.7803L31.2228 26.3194L31.3721 27.2517L31.5292 26.3194L32.2362 26.7855L31.7073 26.1649Z" fill="url(#paint4_linear_169_3909)"/>
<path d="M33.5533 15.8504C33.5533 15.9158 34.6688 16.5522 35.7032 17.1387C40.1469 19.6709 43.614 22.2005 43.2447 23.0437C42.5796 24.5625 32.8384 21.7736 21.4841 16.8114C16.8676 14.7951 12.7014 12.7316 9.42025 10.8855C9.39144 11.1735 9.32074 11.4616 9.20029 11.7418C9.11387 11.9382 9.00913 12.1162 8.88867 12.2812C12.4081 14.2583 16.9173 16.4553 21.6858 18.5397C34.4672 24.1252 45.502 27.1104 46.3321 25.2092C46.9736 23.7376 42.0873 20.1632 33.5533 15.8504Z" fill="white"/>
<path d="M17.2243 17.5445C16.0774 16.9213 14.9488 16.2928 13.8516 15.6643C14.0034 16.9186 14.3124 17.9111 14.4774 18.3353C15.3573 20.5899 17.096 22.5094 19.4894 23.5568C22.4327 24.8425 25.6746 24.5074 28.2198 22.9467C24.944 21.5274 21.1706 19.6865 17.2243 17.5445Z" fill="url(#paint5_linear_169_3909)"/>
<defs>
<linearGradient id="paint0_linear_169_3909" x1="14.6995" y1="18.6706" x2="31.3366" y2="10.6881" gradientUnits="userSpaceOnUse">
<stop offset="0.1037" stop-color="#662D91"/>
<stop offset="0.834" stop-color="#FF00FF"/>
</linearGradient>
<linearGradient id="paint1_linear_169_3909" x1="15.6635" y1="20.2319" x2="37.3561" y2="9.90206" gradientUnits="userSpaceOnUse">
<stop offset="0.1037" stop-color="#662D91"/>
<stop offset="0.834" stop-color="#FF00FF"/>
</linearGradient>
<linearGradient id="paint2_linear_169_3909" x1="3.89698" y1="11.2332" x2="8.93855" y2="8.12419" gradientUnits="userSpaceOnUse">
<stop offset="0.1366" stop-color="#0193CC"/>
<stop offset="0.8761" stop-color="#01D0CC"/>
</linearGradient>
<linearGradient id="paint3_linear_169_3909" x1="9.14816" y1="6.5515" x2="30.841" y2="-3.77842" gradientUnits="userSpaceOnUse">
<stop offset="0.1037" stop-color="#662D91"/>
<stop offset="0.834" stop-color="#FF00FF"/>
</linearGradient>
<linearGradient id="paint4_linear_169_3909" x1="20.8182" y1="31.0583" x2="42.5112" y2="20.7283" gradientUnits="userSpaceOnUse">
<stop offset="0.1037" stop-color="#662D91"/>
<stop offset="0.834" stop-color="#FF00FF"/>
</linearGradient>
<linearGradient id="paint5_linear_169_3909" x1="16.1404" y1="21.6822" x2="31.797" y2="14.1702" gradientUnits="userSpaceOnUse">
<stop offset="0.1037" stop-color="#662D91"/>
<stop offset="0.834" stop-color="#FF00FF"/>
</linearGradient>
</defs>
</svg>
