<svg width="190" height="28" viewBox="0 0 190 28" fill="none" xmlns="http://www.w3.org/2000/svg">
<path d="M65.8042 23.2301C64.4052 23.2301 63.1214 23.006 61.9526 22.5518C60.7838 22.0976 59.7664 21.4617 58.8943 20.6321C58.0223 19.8024 57.3501 18.8274 56.8716 17.701C56.3993 16.5867 56.1631 15.3573 56.1631 14.025C56.1631 12.6927 56.3993 11.4694 56.8777 10.343C57.3561 9.21658 58.0344 8.24157 58.9125 7.4119C59.7906 6.58224 60.8201 5.94636 61.995 5.49217C63.1698 5.03797 64.4597 4.8139 65.8587 4.8139C67.3787 4.8139 68.7474 5.0622 69.9646 5.55878C71.1818 6.05537 72.2114 6.77603 73.0471 7.73287L70.9517 9.77978C70.2553 9.08335 69.4983 8.56254 68.6868 8.23551C67.8753 7.90244 66.9851 7.73893 66.0161 7.73893C65.0774 7.73893 64.2114 7.89033 63.406 8.19918C62.6066 8.50803 61.9162 8.938 61.3349 9.50121C60.7535 10.0644 60.3054 10.7306 59.9904 11.4936C59.6755 12.2627 59.5181 13.1045 59.5181 14.025C59.5181 14.9273 59.6755 15.7631 59.9904 16.5322C60.3054 17.3013 60.7535 17.9674 61.3349 18.5427C61.9162 19.112 62.5945 19.5541 63.3818 19.8569C64.163 20.1657 65.0351 20.3171 65.9919 20.3171C66.8761 20.3171 67.736 20.1779 68.5596 19.8932C69.3893 19.6147 70.1766 19.1362 70.9275 18.4761L72.823 20.9591C71.8843 21.71 70.8003 22.2732 69.5649 22.6608C68.3174 23.0423 67.0638 23.2301 65.8042 23.2301ZM69.6679 20.523V13.8252H72.8109V20.9591L69.6679 20.523Z" fill="url(#paint0_linear_169_3365)"/>
<path d="M76.699 22.9758L84.7534 5.0744H88.0297L96.1144 22.9758H92.6322L85.7042 6.83669H87.0304L80.1266 22.9758H76.699Z" fill="url(#paint1_linear_169_3365)"/>
<path d="M100.432 22.9758V5.0744H103.757V20.1658H113.119V22.9819H100.432V22.9758Z" fill="url(#paint2_linear_169_3365)"/>
<path d="M115.293 22.9758L123.348 5.0744H126.624L134.703 22.9758H131.227L124.293 6.83669H125.625L118.721 22.9758H115.293Z" fill="url(#paint3_linear_169_3365)"/>
<path d="M135.957 22.9758L143.503 12.5898V15.097L136.314 5.0744H140.075L145.422 12.4929L143.89 12.5172L149.183 5.0744H152.792L145.658 14.9214V12.5172L153.253 22.9758H149.419L143.793 15.097H145.301L139.754 22.9758H135.957Z" fill="url(#paint4_linear_169_3365)"/>
<path d="M161.537 22.9758V15.8903L162.282 17.9373L154.506 5.0744H158.061L164.298 15.4301H162.306L168.598 5.0744H171.874L164.098 17.9373L164.868 15.8903V22.9758H161.537Z" fill="url(#paint5_linear_169_3365)"/>
<path d="M174.733 22.9758V20.7533L186.294 6.63684L186.675 7.89043H174.909V5.0744H189.667V7.29694L178.106 21.4134L177.694 20.1598H190V22.9758H174.733Z" fill="url(#paint6_linear_169_3365)"/>
<path d="M19.9393 17.3717C23.2885 18.8355 26.4963 20.1108 29.3742 21.1399C29.6282 21.2316 29.8769 21.318 30.1257 21.407C30.8615 20.6319 31.4795 19.718 31.9325 18.681C34.0222 13.8995 31.8409 8.3297 27.0567 6.24006C22.2751 4.15042 16.7054 6.33171 14.6157 11.1159C14.126 12.2367 13.8747 13.4019 13.8328 14.5541C15.7417 15.4863 17.7921 16.4343 19.9393 17.3717Z" fill="url(#paint7_linear_169_3365)"/>
<path d="M35.5251 11.3411C35.2292 11.2128 35.0931 10.8671 35.2214 10.5686C35.3025 10.3853 35.4649 10.2622 35.6482 10.2282C35.6142 10.2072 35.5801 10.1863 35.5435 10.168C35.1297 9.98727 34.6453 10.1758 34.4646 10.5896C34.2839 11.0033 34.4724 11.4877 34.8862 11.6684C35.258 11.8308 35.6796 11.6946 35.897 11.3673C35.7791 11.4013 35.6482 11.3961 35.5251 11.3411Z" fill="url(#paint8_linear_169_3365)"/>
<path d="M8.92535 10.8461C8.30474 12.268 6.64717 12.9174 5.22789 12.2942C3.80599 11.6735 3.15657 10.016 3.7798 8.59669C4.40041 7.17479 6.05798 6.52538 7.47727 7.1486C8.89655 7.77183 9.54596 9.42417 8.92535 10.8461Z" fill="url(#paint9_linear_169_3365)"/>
<path d="M4.35069 7.6908C4.12026 7.51273 3.90291 7.34514 3.84007 7.29539C2.65646 6.3396 1.94158 5.5095 2.13012 5.08005C2.32913 4.62441 3.35301 4.55895 4.98701 4.82081C2.1694 4.24733 0.362562 4.26043 0.0457116 4.98578C-0.234479 5.62472 0.784157 6.82404 2.80572 8.36378C2.88166 8.42139 3.11995 8.60207 3.36872 8.79323C3.59915 8.32712 3.94219 7.95266 4.35069 7.6908Z" fill="white"/>
<path d="M17.6295 2.97205L18.3915 2.7259L17.6295 2.47714L18.2109 1.70203L17.5064 2.22837L17.1896 -6.10352e-05L16.8675 2.22837L16.1631 1.69941L16.7444 2.47714L15.9824 2.72328L16.7444 2.97205L16.1631 3.74716L16.8649 3.22082L17.1844 5.44663L17.5064 3.22082L18.2082 3.74716L17.6295 2.97205Z" fill="url(#paint10_linear_169_3365)"/>
<path d="M31.7073 26.1649L32.3907 26.034L31.7099 25.8978L32.2415 25.2799L31.5318 25.7407L31.3826 24.8085L31.2255 25.7407L30.5184 25.2746L31.0474 25.8952L30.3613 26.0262L31.0448 26.1623L30.5132 26.7803L31.2228 26.3194L31.3721 27.2517L31.5292 26.3194L32.2362 26.7855L31.7073 26.1649Z" fill="url(#paint11_linear_169_3365)"/>
<path d="M33.553 15.8504C33.553 15.9158 34.6686 16.5522 35.7029 17.1387C40.1467 19.6709 43.6137 22.2005 43.2445 23.0437C42.5794 24.5625 32.8382 21.7736 21.4839 16.8114C16.8673 14.7951 12.7011 12.7316 9.42 10.8855C9.3912 11.1735 9.3205 11.4616 9.20004 11.7418C9.11363 11.9382 9.00888 12.1162 8.88843 12.2812C12.4078 14.2583 16.9171 16.4553 21.6855 18.5397C34.4669 24.1252 45.5017 27.1104 46.3318 25.2092C46.9734 23.7376 42.0871 20.1632 33.553 15.8504Z" fill="white"/>
<path d="M17.2238 17.5445C16.0769 16.9213 14.9483 16.2928 13.8511 15.6643C14.003 16.9186 14.3119 17.9111 14.4769 18.3353C15.3568 20.5899 17.0955 22.5094 19.4889 23.5568C22.4322 24.8425 25.6741 24.5074 28.2193 22.9467C24.9435 21.5274 21.1701 19.6865 17.2238 17.5445Z" fill="url(#paint12_linear_169_3365)"/>
<defs>
<linearGradient id="paint0_linear_169_3365" x1="57.1626" y1="4.5924" x2="73.3773" y2="4.75015" gradientUnits="userSpaceOnUse">
<stop stop-color="white"/>
<stop offset="1" stop-color="#8A2BE2"/>
</linearGradient>
<linearGradient id="paint1_linear_169_3365" x1="77.8483" y1="4.85909" x2="96.4934" y2="5.07368" gradientUnits="userSpaceOnUse">
<stop stop-color="white"/>
<stop offset="1" stop-color="#8A2BE2"/>
</linearGradient>
<linearGradient id="paint2_linear_169_3365" x1="101.183" y1="4.85902" x2="113.368" y2="4.95063" gradientUnits="userSpaceOnUse">
<stop stop-color="white"/>
<stop offset="1" stop-color="#8A2BE2"/>
</linearGradient>
<linearGradient id="paint3_linear_169_3365" x1="116.442" y1="4.85909" x2="135.082" y2="5.07354" gradientUnits="userSpaceOnUse">
<stop stop-color="white"/>
<stop offset="1" stop-color="#8A2BE2"/>
</linearGradient>
<linearGradient id="paint4_linear_169_3365" x1="136.981" y1="4.85909" x2="153.591" y2="5.02939" gradientUnits="userSpaceOnUse">
<stop stop-color="white"/>
<stop offset="1" stop-color="#8A2BE2"/>
</linearGradient>
<linearGradient id="paint5_linear_169_3365" x1="155.534" y1="4.85909" x2="172.214" y2="5.03082" gradientUnits="userSpaceOnUse">
<stop stop-color="white"/>
<stop offset="1" stop-color="#8A2BE2"/>
</linearGradient>
<linearGradient id="paint6_linear_169_3365" x1="175.637" y1="4.85909" x2="190.299" y2="4.99178" gradientUnits="userSpaceOnUse">
<stop stop-color="white"/>
<stop offset="1" stop-color="#8A2BE2"/>
</linearGradient>
<linearGradient id="paint7_linear_169_3365" x1="14.7002" y1="18.6706" x2="31.3373" y2="10.6881" gradientUnits="userSpaceOnUse">
<stop offset="0.1037" stop-color="#662D91"/>
<stop offset="0.834" stop-color="#FF00FF"/>
</linearGradient>
<linearGradient id="paint8_linear_169_3365" x1="15.663" y1="20.2319" x2="37.3557" y2="9.90206" gradientUnits="userSpaceOnUse">
<stop offset="0.1037" stop-color="#662D91"/>
<stop offset="0.834" stop-color="#FF00FF"/>
</linearGradient>
<linearGradient id="paint9_linear_169_3365" x1="3.89698" y1="11.2332" x2="8.93855" y2="8.12419" gradientUnits="userSpaceOnUse">
<stop offset="0.1366" stop-color="#0193CC"/>
<stop offset="0.8761" stop-color="#01D0CC"/>
</linearGradient>
<linearGradient id="paint10_linear_169_3365" x1="9.14816" y1="6.5515" x2="30.841" y2="-3.77842" gradientUnits="userSpaceOnUse">
<stop offset="0.1037" stop-color="#662D91"/>
<stop offset="0.834" stop-color="#FF00FF"/>
</linearGradient>
<linearGradient id="paint11_linear_169_3365" x1="20.8182" y1="31.0583" x2="42.5112" y2="20.7283" gradientUnits="userSpaceOnUse">
<stop offset="0.1037" stop-color="#662D91"/>
<stop offset="0.834" stop-color="#FF00FF"/>
</linearGradient>
<linearGradient id="paint12_linear_169_3365" x1="16.1399" y1="21.6822" x2="31.7965" y2="14.1702" gradientUnits="userSpaceOnUse">
<stop offset="0.1037" stop-color="#662D91"/>
<stop offset="0.834" stop-color="#FF00FF"/>
</linearGradient>
</defs>
</svg>
